<svg xmlns="http://www.w3.org/2000/svg" viewBox="0 0 100 100">
  <path d="M22.413 4.882a21.882 21.882 0 0 0-5.459-1.68 14.996 14.996 0 0 0-.7 1.422 20.328 20.328 0 0 0-6.057 0 15.06 15.06 0 0 0-.7-1.421 22.036 22.036 0 0 0-5.462 1.683C.581 9.997-.355 14.981.112 19.895a22.003 22.003 0 0 0 6.695 3.36 16.17 16.17 0 0 0 1.434-2.311 14.238 14.238 0 0 1-2.258-1.078c.19-.138.375-.28.554-.417a15.726 15.726 0 0 0 13.385 0c.18.148.366.29.553.417a14.293 14.293 0 0 1-2.262 1.08 16.024 16.024 0 0 0 1.434 2.31 21.903 21.903 0 0 0 6.699-3.36c.55-5.697-.939-10.635-3.933-15.014ZM8.834 16.873c-1.305 0-2.383-1.184-2.383-2.64 0-1.457 1.04-2.652 2.379-2.652 1.338 0 2.408 1.195 2.385 2.651-.023 1.457-1.051 2.641-2.381 2.641Zm8.79 0c-1.307 0-2.38-1.184-2.38-2.64 0-1.457 1.04-2.652 2.38-2.652 1.34 0 2.402 1.195 2.379 2.651-.023 1.457-1.049 2.641-2.379 2.641z"/>
</svg>
